<svg width="128" height="128" viewBox="0 0 128 128" fill="none" xmlns="http://www.w3.org/2000/svg">
<g clip-path="url(#clip0_1_31)" filter="url(#filter0_i_1_31)">
<rect width="128" height="128" fill="url(#paint0_linear_1_31)"/>
<line x1="128" y1="102" x2="-8.74228e-08" y2="102" stroke="black" stroke-opacity="0.2" stroke-width="2"/>
<line x1="128" y1="77" x2="-8.74228e-08" y2="77" stroke="black" stroke-opacity="0.2" stroke-width="2"/>
<line x1="128" y1="52" x2="-8.74228e-08" y2="52" stroke="black" stroke-opacity="0.2" stroke-width="2"/>
<line x1="128" y1="27" x2="-8.74228e-08" y2="27" stroke="black" stroke-opacity="0.2" stroke-width="2"/>
<line x1="128" y1="102" x2="-1.74846e-07" y2="102" stroke="black" stroke-opacity="0.1" stroke-width="4"/>
<line x1="128" y1="77" x2="-1.74846e-07" y2="77" stroke="black" stroke-opacity="0.1" stroke-width="4"/>
<line x1="128" y1="52" x2="-1.74846e-07" y2="52" stroke="black" stroke-opacity="0.1" stroke-width="4"/>
<line x1="128" y1="27" x2="-1.74846e-07" y2="27" stroke="black" stroke-opacity="0.1" stroke-width="4"/>
<line x1="103" y1="-0.999992" x2="103" y2="127" stroke="black" stroke-opacity="0.2" stroke-width="2"/>
<line x1="78" y1="-0.999992" x2="78" y2="127" stroke="black" stroke-opacity="0.2" stroke-width="2"/>
<line x1="53" y1="-0.999992" x2="53" y2="127" stroke="black" stroke-opacity="0.2" stroke-width="2"/>
<line x1="28" y1="-0.999992" x2="28" y2="127" stroke="black" stroke-opacity="0.2" stroke-width="2"/>
<line x1="103" y1="-0.999992" x2="103" y2="127" stroke="black" stroke-opacity="0.1" stroke-width="4"/>
<line x1="78" y1="-0.999992" x2="78" y2="127" stroke="black" stroke-opacity="0.1" stroke-width="4"/>
<line x1="53" y1="-0.999992" x2="53" y2="127" stroke="black" stroke-opacity="0.1" stroke-width="4"/>
<line x1="28" y1="-0.999992" x2="28" y2="127" stroke="black" stroke-opacity="0.1" stroke-width="4"/>
<rect x="3" y="3" width="122" height="122" stroke="#623E24" stroke-width="6"/>
</g>
<defs>
<filter id="filter0_i_1_31" x="0" y="0" width="128" height="128" filterUnits="userSpaceOnUse" color-interpolation-filters="sRGB">
<feFlood flood-opacity="0" result="BackgroundImageFix"/>
<feBlend mode="normal" in="SourceGraphic" in2="BackgroundImageFix" result="shape"/>
<feColorMatrix in="SourceAlpha" type="matrix" values="0 0 0 0 0 0 0 0 0 0 0 0 0 0 0 0 0 0 127 0" result="hardAlpha"/>
<feMorphology radius="6" operator="erode" in="SourceAlpha" result="effect1_innerShadow_1_31"/>
<feOffset/>
<feGaussianBlur stdDeviation="6"/>
<feComposite in2="hardAlpha" operator="arithmetic" k2="-1" k3="1"/>
<feColorMatrix type="matrix" values="0 0 0 0 0 0 0 0 0 0 0 0 0 0 0 0 0 0 0.25 0"/>
<feBlend mode="normal" in2="shape" result="effect1_innerShadow_1_31"/>
</filter>
<linearGradient id="paint0_linear_1_31" x1="64" y1="0" x2="64" y2="128" gradientUnits="userSpaceOnUse">
<stop stop-color="#CB7D45"/>
<stop offset="1" stop-color="#B3784D"/>
</linearGradient>
<clipPath id="clip0_1_31">
<rect width="128" height="128" fill="white"/>
</clipPath>
</defs>
</svg>
