<svg width="128" height="384" viewBox="0 0 128 384" fill="none" xmlns="http://www.w3.org/2000/svg">
<g clip-path="url(#clip0_32_137)">
<path d="M102.5 60L102.5 63.5L103.5 65" stroke="#3A3A3A" stroke-linejoin="round"/>
<rect x="114" y="56" width="1" height="2" rx="0.5" fill="#1E1E1E"/>
<rect x="95" y="56" width="1" height="2" rx="0.5" fill="#1E1E1E"/>
<path d="M99.5 65L101.233 66.3C101.406 66.4298 101.617 66.5 101.833 66.5L105.586 66.5C105.851 66.5 106.105 66.3947 106.293 66.2071L106.707 65.7929C106.895 65.6054 107 65.351 107 65.0858L107 62" stroke="#3A3A3A" stroke-linejoin="round"/>
<path d="M93 60.5C93 60.2239 93.2239 60 93.5 60L117 60L117 61.5C117 61.7762 116.776 62 116.5 62L93.5 62C93.2239 62 93 61.7761 93 61.5L93 60.5Z" fill="#151515"/>
<path d="M93.5 57.2C93.5 57.0896 93.5896 57 93.7 57L116.75 57C116.888 57 117 57.1119 117 57.25L117 60L93.5 60L93.5 57.2Z" fill="#2B2B2B"/>
<path d="M96 62L102 62L98.1257 71.6857C98.0498 71.8755 97.8659 72 97.6615 72L92.7385 72C92.3848 72 92.1429 71.6427 92.2743 71.3143L96 62Z" fill="#151515"/>
<path d="M117 57.25L117.25 57.25C117.388 57.25 117.5 57.3619 117.5 57.5L117.5 59.5C117.5 59.6381 117.388 59.75 117.25 59.75L117 59.75L117 57.25Z" fill="#1F1F1F"/>
<path d="M25.5 188L25.5 191.5L24.5 193" stroke="#3A3A3A" stroke-linejoin="round"/>
<rect width="1" height="2" rx="0.5" transform="matrix(-1 8.74228e-08 8.74228e-08 1 14 184)" fill="#1E1E1E"/>
<rect width="1" height="2" rx="0.5" transform="matrix(-1 8.74228e-08 8.74228e-08 1 33 184)" fill="#1E1E1E"/>
<path d="M28.5 193L26.7667 194.3C26.5936 194.43 26.383 194.5 26.1667 194.5L22.4142 194.5C22.149 194.5 21.8946 194.395 21.7071 194.207L21.2929 193.793C21.1054 193.605 21 193.351 21 193.086L21 190" stroke="#3A3A3A" stroke-linejoin="round"/>
<path d="M35 188.5C35 188.224 34.7761 188 34.5 188L11 188L11 189.5C11 189.776 11.2239 190 11.5 190L34.5 190C34.7761 190 35 189.776 35 189.5L35 188.5Z" fill="#151515"/>
<path d="M34.5 185.2C34.5 185.09 34.4105 185 34.3 185L11.25 185C11.1119 185 11 185.112 11 185.25L11 188L34.5 188L34.5 185.2Z" fill="#2B2B2B"/>
<path d="M32 190L26 190L29.8743 199.686C29.9502 199.876 30.1341 200 30.3385 200L35.2615 200C35.6152 200 35.8571 199.643 35.7257 199.314L32 190Z" fill="#151515"/>
<path d="M11 185.25L10.75 185.25C10.6119 185.25 10.5 185.362 10.5 185.5L10.5 187.5C10.5 187.638 10.6119 187.75 10.75 187.75L11 187.75L11 185.25Z" fill="#1F1F1F"/>
<path d="M55 304L55 318L59 324" stroke="#3A3A3A" stroke-width="4" stroke-linejoin="round"/>
<rect x="101" y="288" width="4" height="8" rx="2" fill="#1E1E1E"/>
<rect x="25" y="288" width="4" height="8" rx="2" fill="#1E1E1E"/>
<path d="M43 324L49.9333 329.2C50.6257 329.719 51.4679 330 52.3333 330L67.3432 330C68.404 330 69.4214 329.579 70.1716 328.828L71.8284 327.172C72.5786 326.421 73 325.404 73 324.343L73 312" stroke="#3A3A3A" stroke-width="4" stroke-linejoin="round"/>
<path d="M17 306C17 304.895 17.8954 304 19 304L113 304L113 310C113 311.105 112.105 312 111 312L19 312C17.8954 312 17 311.105 17 310L17 306Z" fill="#151515"/>
<path d="M19 292.8C19 292.358 19.3582 292 19.8 292L112 292C112.552 292 113 292.448 113 293L113 304L19 304L19 292.8Z" fill="#2B2B2B"/>
<path d="M29 312L53 312L37.5029 350.743C37.1992 351.502 36.4637 352 35.6459 352L15.9541 352C14.5391 352 13.5716 350.571 14.0971 349.257L29 312Z" fill="#151515"/>
<path d="M113 293L114 293C114.552 293 115 293.448 115 294L115 302C115 302.552 114.552 303 114 303L113 303L113 293Z" fill="#1F1F1F"/>
</g>
<defs>
<clipPath id="clip0_32_137">
<rect width="128" height="384" fill="white"/>
</clipPath>
</defs>
</svg>
