<svg width="128" height="640" viewBox="0 0 128 640" fill="none" xmlns="http://www.w3.org/2000/svg">
<g clip-path="url(#clip0_96_186)">
<g clip-path="url(#clip1_96_186)" filter="url(#filter0_i_96_186)">
<rect width="128" height="128" fill="url(#paint0_linear_96_186)"/>
<path fill-rule="evenodd" clip-rule="evenodd" d="M6 10C6 7.79086 7.79086 6 10 6H118C120.209 6 122 7.79086 122 10V118C122 120.209 120.209 122 118 122H10C7.79086 122 6 120.209 6 118V10ZM0 118V10V6V0H6H10H118H122H128V6V10V118V122V128H122H118H10H6H0V122V118Z" fill="#37662D"/>
<path fill-rule="evenodd" clip-rule="evenodd" d="M51 43C53.7614 43 56 45.2386 56 48V60C56 62.7614 53.7614 65 51 65C48.2386 65 46 62.7614 46 60V48C46 45.2386 48.2386 43 51 43ZM76 43C78.7614 43 81 45.2386 81 48V60C81 62.7614 78.7614 65 76 65C73.2386 65 71 62.7614 71 60V48C71 45.2386 73.2386 43 76 43ZM51 75C48.2386 75 46 77.2386 46 80C46 82.7614 48.2386 85 51 85L76 85C78.7614 85 81 82.7614 81 80C81 77.2386 78.7614 75 76 75L51 75Z" fill="black" fill-opacity="0.8"/>
</g>
<g clip-path="url(#clip2_96_186)" filter="url(#filter1_i_96_186)">
<rect width="128" height="128" transform="translate(0 128)" fill="url(#paint1_linear_96_186)"/>
<path fill-rule="evenodd" clip-rule="evenodd" d="M6 138C6 135.791 7.79086 134 10 134H118C120.209 134 122 135.791 122 138V246C122 248.209 120.209 250 118 250H10C7.79086 250 6 248.209 6 246V138ZM0 246V138V134V128H6H10H118H122H128V134V138V246V250V256H122H118H10H6H0V250V246Z" fill="#37662D"/>
<path fill-rule="evenodd" clip-rule="evenodd" d="M51 143C53.7614 143 56 145.239 56 148V160C56 162.761 53.7614 165 51 165C48.2386 165 46 162.761 46 160V148C46 145.239 48.2386 143 51 143ZM76 143C78.7614 143 81 145.239 81 148V160C81 162.761 78.7614 165 76 165C73.2386 165 71 162.761 71 160V148C71 145.239 73.2386 143 76 143ZM51 175C48.2386 175 46 177.239 46 180C46 182.761 48.2386 185 51 185L76 185C78.7614 185 81 182.761 81 180C81 177.239 78.7614 175 76 175L51 175Z" fill="black" fill-opacity="0.8"/>
</g>
<g clip-path="url(#clip3_96_186)" filter="url(#filter2_i_96_186)">
<rect width="128" height="128" transform="translate(0 256)" fill="url(#paint2_linear_96_186)"/>
<path fill-rule="evenodd" clip-rule="evenodd" d="M6 266C6 263.791 7.79086 262 10 262H118C120.209 262 122 263.791 122 266V374C122 376.209 120.209 378 118 378H10C7.79086 378 6 376.209 6 374V266ZM0 374V266V262V256H6H10H118H122H128V262V266V374V378V384H122H118H10H6H0V378V374Z" fill="#37662D"/>
<path fill-rule="evenodd" clip-rule="evenodd" d="M51 327C53.7614 327 56 329.239 56 332V344C56 346.761 53.7614 349 51 349C48.2386 349 46 346.761 46 344V332C46 329.239 48.2386 327 51 327ZM76 327C78.7614 327 81 329.239 81 332V344C81 346.761 78.7614 349 76 349C73.2386 349 71 346.761 71 344V332C71 329.239 73.2386 327 76 327ZM51 359C48.2386 359 46 361.239 46 364C46 366.761 48.2386 369 51 369L76 369C78.7614 369 81 366.761 81 364C81 361.239 78.7614 359 76 359L51 359Z" fill="black" fill-opacity="0.8"/>
</g>
<g clip-path="url(#clip4_96_186)" filter="url(#filter3_i_96_186)">
<rect width="128" height="128" transform="translate(0 384)" fill="url(#paint3_linear_96_186)"/>
<path fill-rule="evenodd" clip-rule="evenodd" d="M6 394C6 391.791 7.79086 390 10 390H118C120.209 390 122 391.791 122 394V502C122 504.209 120.209 506 118 506H10C7.79086 506 6 504.209 6 502V394ZM0 502V394V390V384H6H10H118H122H128V390V394V502V506V512H122H118H10H6H0V506V502Z" fill="#37662D"/>
<path fill-rule="evenodd" clip-rule="evenodd" d="M20 427C22.7614 427 25 429.239 25 432V444C25 446.761 22.7614 449 20 449C17.2386 449 15 446.761 15 444V432C15 429.239 17.2386 427 20 427ZM45 427C47.7614 427 50 429.239 50 432V444C50 446.761 47.7614 449 45 449C42.2386 449 40 446.761 40 444V432C40 429.239 42.2386 427 45 427ZM20 459C17.2386 459 15 461.239 15 464C15 466.761 17.2386 469 20 469L45 469C47.7614 469 50 466.761 50 464C50 461.239 47.7614 459 45 459L20 459Z" fill="black" fill-opacity="0.8"/>
</g>
<g clip-path="url(#clip5_96_186)" filter="url(#filter4_i_96_186)">
<rect width="128" height="128" transform="translate(0 512)" fill="url(#paint4_linear_96_186)"/>
<path fill-rule="evenodd" clip-rule="evenodd" d="M6 522C6 519.791 7.79086 518 10 518H118C120.209 518 122 519.791 122 522V630C122 632.209 120.209 634 118 634H10C7.79086 634 6 632.209 6 630V522ZM0 630V522V518V512H6H10H118H122H128V518V522V630V634V640H122H118H10H6H0V634V630Z" fill="#37662D"/>
<path fill-rule="evenodd" clip-rule="evenodd" d="M83 555C85.7614 555 88 557.239 88 560V572C88 574.761 85.7614 577 83 577C80.2386 577 78 574.761 78 572V560C78 557.239 80.2386 555 83 555ZM108 555C110.761 555 113 557.239 113 560V572C113 574.761 110.761 577 108 577C105.239 577 103 574.761 103 572V560C103 557.239 105.239 555 108 555ZM83 587C80.2386 587 78 589.239 78 592C78 594.761 80.2386 597 83 597L108 597C110.761 597 113 594.761 113 592C113 589.239 110.761 587 108 587L83 587Z" fill="black" fill-opacity="0.8"/>
</g>
</g>
<defs>
<filter id="filter0_i_96_186" x="0" y="0" width="128" height="128" filterUnits="userSpaceOnUse" color-interpolation-filters="sRGB">
<feFlood flood-opacity="0" result="BackgroundImageFix"/>
<feBlend mode="normal" in="SourceGraphic" in2="BackgroundImageFix" result="shape"/>
<feColorMatrix in="SourceAlpha" type="matrix" values="0 0 0 0 0 0 0 0 0 0 0 0 0 0 0 0 0 0 127 0" result="hardAlpha"/>
<feMorphology radius="6" operator="erode" in="SourceAlpha" result="effect1_innerShadow_96_186"/>
<feOffset/>
<feGaussianBlur stdDeviation="6"/>
<feComposite in2="hardAlpha" operator="arithmetic" k2="-1" k3="1"/>
<feColorMatrix type="matrix" values="0 0 0 0 0 0 0 0 0 0 0 0 0 0 0 0 0 0 0.25 0"/>
<feBlend mode="normal" in2="shape" result="effect1_innerShadow_96_186"/>
</filter>
<filter id="filter1_i_96_186" x="0" y="128" width="128" height="128" filterUnits="userSpaceOnUse" color-interpolation-filters="sRGB">
<feFlood flood-opacity="0" result="BackgroundImageFix"/>
<feBlend mode="normal" in="SourceGraphic" in2="BackgroundImageFix" result="shape"/>
<feColorMatrix in="SourceAlpha" type="matrix" values="0 0 0 0 0 0 0 0 0 0 0 0 0 0 0 0 0 0 127 0" result="hardAlpha"/>
<feMorphology radius="6" operator="erode" in="SourceAlpha" result="effect1_innerShadow_96_186"/>
<feOffset/>
<feGaussianBlur stdDeviation="6"/>
<feComposite in2="hardAlpha" operator="arithmetic" k2="-1" k3="1"/>
<feColorMatrix type="matrix" values="0 0 0 0 0 0 0 0 0 0 0 0 0 0 0 0 0 0 0.25 0"/>
<feBlend mode="normal" in2="shape" result="effect1_innerShadow_96_186"/>
</filter>
<filter id="filter2_i_96_186" x="0" y="256" width="128" height="128" filterUnits="userSpaceOnUse" color-interpolation-filters="sRGB">
<feFlood flood-opacity="0" result="BackgroundImageFix"/>
<feBlend mode="normal" in="SourceGraphic" in2="BackgroundImageFix" result="shape"/>
<feColorMatrix in="SourceAlpha" type="matrix" values="0 0 0 0 0 0 0 0 0 0 0 0 0 0 0 0 0 0 127 0" result="hardAlpha"/>
<feMorphology radius="6" operator="erode" in="SourceAlpha" result="effect1_innerShadow_96_186"/>
<feOffset/>
<feGaussianBlur stdDeviation="6"/>
<feComposite in2="hardAlpha" operator="arithmetic" k2="-1" k3="1"/>
<feColorMatrix type="matrix" values="0 0 0 0 0 0 0 0 0 0 0 0 0 0 0 0 0 0 0.25 0"/>
<feBlend mode="normal" in2="shape" result="effect1_innerShadow_96_186"/>
</filter>
<filter id="filter3_i_96_186" x="0" y="384" width="128" height="128" filterUnits="userSpaceOnUse" color-interpolation-filters="sRGB">
<feFlood flood-opacity="0" result="BackgroundImageFix"/>
<feBlend mode="normal" in="SourceGraphic" in2="BackgroundImageFix" result="shape"/>
<feColorMatrix in="SourceAlpha" type="matrix" values="0 0 0 0 0 0 0 0 0 0 0 0 0 0 0 0 0 0 127 0" result="hardAlpha"/>
<feMorphology radius="6" operator="erode" in="SourceAlpha" result="effect1_innerShadow_96_186"/>
<feOffset/>
<feGaussianBlur stdDeviation="6"/>
<feComposite in2="hardAlpha" operator="arithmetic" k2="-1" k3="1"/>
<feColorMatrix type="matrix" values="0 0 0 0 0 0 0 0 0 0 0 0 0 0 0 0 0 0 0.25 0"/>
<feBlend mode="normal" in2="shape" result="effect1_innerShadow_96_186"/>
</filter>
<filter id="filter4_i_96_186" x="0" y="512" width="128" height="128" filterUnits="userSpaceOnUse" color-interpolation-filters="sRGB">
<feFlood flood-opacity="0" result="BackgroundImageFix"/>
<feBlend mode="normal" in="SourceGraphic" in2="BackgroundImageFix" result="shape"/>
<feColorMatrix in="SourceAlpha" type="matrix" values="0 0 0 0 0 0 0 0 0 0 0 0 0 0 0 0 0 0 127 0" result="hardAlpha"/>
<feMorphology radius="6" operator="erode" in="SourceAlpha" result="effect1_innerShadow_96_186"/>
<feOffset/>
<feGaussianBlur stdDeviation="6"/>
<feComposite in2="hardAlpha" operator="arithmetic" k2="-1" k3="1"/>
<feColorMatrix type="matrix" values="0 0 0 0 0 0 0 0 0 0 0 0 0 0 0 0 0 0 0.25 0"/>
<feBlend mode="normal" in2="shape" result="effect1_innerShadow_96_186"/>
</filter>
<linearGradient id="paint0_linear_96_186" x1="64" y1="0" x2="64" y2="128" gradientUnits="userSpaceOnUse">
<stop stop-color="#79DB63"/>
<stop offset="1" stop-color="#68BF54"/>
</linearGradient>
<linearGradient id="paint1_linear_96_186" x1="64" y1="0" x2="64" y2="128" gradientUnits="userSpaceOnUse">
<stop stop-color="#79DB63"/>
<stop offset="1" stop-color="#68BF54"/>
</linearGradient>
<linearGradient id="paint2_linear_96_186" x1="64" y1="0" x2="64" y2="128" gradientUnits="userSpaceOnUse">
<stop stop-color="#79DB63"/>
<stop offset="1" stop-color="#68BF54"/>
</linearGradient>
<linearGradient id="paint3_linear_96_186" x1="64" y1="0" x2="64" y2="128" gradientUnits="userSpaceOnUse">
<stop stop-color="#79DB63"/>
<stop offset="1" stop-color="#68BF54"/>
</linearGradient>
<linearGradient id="paint4_linear_96_186" x1="64" y1="0" x2="64" y2="128" gradientUnits="userSpaceOnUse">
<stop stop-color="#79DB63"/>
<stop offset="1" stop-color="#68BF54"/>
</linearGradient>
<clipPath id="clip0_96_186">
<rect width="128" height="640" fill="white"/>
</clipPath>
<clipPath id="clip1_96_186">
<rect width="128" height="128" fill="white"/>
</clipPath>
<clipPath id="clip2_96_186">
<rect width="128" height="128" fill="white" transform="translate(0 128)"/>
</clipPath>
<clipPath id="clip3_96_186">
<rect width="128" height="128" fill="white" transform="translate(0 256)"/>
</clipPath>
<clipPath id="clip4_96_186">
<rect width="128" height="128" fill="white" transform="translate(0 384)"/>
</clipPath>
<clipPath id="clip5_96_186">
<rect width="128" height="128" fill="white" transform="translate(0 512)"/>
</clipPath>
</defs>
</svg>
